<?xml version="1.0" encoding="UTF-8" standalone="no"?><svg xmlns="http://www.w3.org/2000/svg" xmlns:xlink="http://www.w3.org/1999/xlink" contentScriptType="application/ecmascript" contentStyleType="text/css" height="505px" preserveAspectRatio="none" style="width:698px;height:505px;" version="1.1" viewBox="0 0 698 505" width="698px" zoomAndPan="magnify"><defs/><g><rect fill="#4D4D4D" height="40.4883" rx="12.5" ry="12.5" style="stroke:#4D4D4D;stroke-width:1.5;" width="109" x="312" y="231.709"/><text fill="#FFFFFF" font-family="sans-serif" font-size="14" lengthAdjust="spacingAndGlyphs" textLength="85" x="324" y="257.2441">PVE 系統框架</text><rect fill="#E85642" height="40.4883" rx="12.5" ry="12.5" style="stroke:#E85642;stroke-width:1.5;" width="80" x="471" y="140.9766"/><text fill="#FFFFFF" font-family="sans-serif" font-size="14" lengthAdjust="spacingAndGlyphs" textLength="56" x="483" y="166.5117">應用技術</text><rect fill="#E85642" height="40.4883" rx="12.5" ry="12.5" style="stroke:#E85642;stroke-width:1.5;" width="73" x="601" y="80.4883"/><text fill="#FFFFFF" font-family="sans-serif" font-size="14" lengthAdjust="spacingAndGlyphs" textLength="49" x="613" y="106.0234">Golang</text><path d="M551,161.2207 L561,161.2207 C576,161.2207 576,100.7324 591,100.7324 L601,100.7324 " fill="none" style="stroke:#4D4D4D;stroke-width:1.0;"/><rect fill="#E85642" height="40.4883" rx="12.5" ry="12.5" style="stroke:#E85642;stroke-width:1.5;" width="61" x="601" y="140.9766"/><text fill="#FFFFFF" font-family="sans-serif" font-size="14" lengthAdjust="spacingAndGlyphs" textLength="37" x="613" y="166.5117">Redis</text><path d="M551,161.2207 L561,161.2207 C576,161.2207 576,161.2207 591,161.2207 L601,161.2207 " fill="none" style="stroke:#4D4D4D;stroke-width:1.0;"/><rect fill="#E85642" height="40.4883" rx="12.5" ry="12.5" style="stroke:#E85642;stroke-width:1.5;" width="85" x="601" y="201.4648"/><text fill="#FFFFFF" font-family="sans-serif" font-size="14" lengthAdjust="spacingAndGlyphs" textLength="61" x="613" y="227">AWS EC2</text><path d="M551,161.2207 L561,161.2207 C576,161.2207 576,221.709 591,221.709 L601,221.709 " fill="none" style="stroke:#4D4D4D;stroke-width:1.0;"/><path d="M421,251.9531 L431,251.9531 C446,251.9531 446,161.2207 461,161.2207 L471,161.2207 " fill="none" style="stroke:#4D4D4D;stroke-width:1.0;"/><rect fill="#FFC300" height="40.4883" rx="12.5" ry="12.5" style="stroke:#FFC300;stroke-width:1.5;" width="80" x="471" y="322.4414"/><text fill="#FFFFFF" font-family="sans-serif" font-size="14" lengthAdjust="spacingAndGlyphs" textLength="56" x="483" y="347.9766">常駐服務</text><rect fill="#FFC300" height="40.4883" rx="12.5" ry="12.5" style="stroke:#FFC300;stroke-width:1.5;" width="80" x="601" y="261.9531"/><text fill="#FFFFFF" font-family="sans-serif" font-size="14" lengthAdjust="spacingAndGlyphs" textLength="56" x="613" y="287.4883">系統復原</text><path d="M551,342.6855 L561,342.6855 C576,342.6855 576,282.1973 591,282.1973 L601,282.1973 " fill="none" style="stroke:#4D4D4D;stroke-width:1.0;"/><rect fill="#FFC300" height="40.4883" rx="12.5" ry="12.5" style="stroke:#FFC300;stroke-width:1.5;" width="80" x="601" y="322.4414"/><text fill="#FFFFFF" font-family="sans-serif" font-size="14" lengthAdjust="spacingAndGlyphs" textLength="56" x="613" y="347.9766">心跳檢測</text><path d="M551,342.6855 L561,342.6855 C576,342.6855 576,342.6855 591,342.6855 L601,342.6855 " fill="none" style="stroke:#4D4D4D;stroke-width:1.0;"/><rect fill="#FFC300" height="40.4883" rx="12.5" ry="12.5" style="stroke:#FFC300;stroke-width:1.5;" width="80" x="601" y="382.9297"/><text fill="#FFFFFF" font-family="sans-serif" font-size="14" lengthAdjust="spacingAndGlyphs" textLength="56" x="613" y="408.4648">斷線重連</text><path d="M551,342.6855 L561,342.6855 C576,342.6855 576,403.1738 591,403.1738 L601,403.1738 " fill="none" style="stroke:#4D4D4D;stroke-width:1.0;"/><path d="M421,251.9531 L431,251.9531 C446,251.9531 446,342.6855 461,342.6855 L471,342.6855 " fill="none" style="stroke:#4D4D4D;stroke-width:1.0;"/><rect fill="#155384" height="40.4883" rx="12.5" ry="12.5" style="stroke:#155384;stroke-width:1.5;" width="80" x="182" y="80.4883"/><text fill="#FFFFFF" font-family="sans-serif" font-size="14" lengthAdjust="spacingAndGlyphs" textLength="56" x="194" y="106.0234">核心單元</text><rect fill="#155384" height="40.4883" rx="12.5" ry="12.5" style="stroke:#155384;stroke-width:1.5;" width="108" x="24" y="20"/><text fill="#FFFFFF" font-family="sans-serif" font-size="14" lengthAdjust="spacingAndGlyphs" textLength="84" x="36" y="45.5352">牌局管理模組</text><path d="M182,100.7324 L172,100.7324 C157,100.7324 157,40.2441 142,40.2441 L132,40.2441 " fill="none" style="stroke:#4D4D4D;stroke-width:1.0;"/><rect fill="#155384" height="40.4883" rx="12.5" ry="12.5" style="stroke:#155384;stroke-width:1.5;" width="108" x="24" y="80.4883"/><text fill="#FFFFFF" font-family="sans-serif" font-size="14" lengthAdjust="spacingAndGlyphs" textLength="84" x="36" y="106.0234">封包處理模組</text><path d="M182,100.7324 L172,100.7324 C157,100.7324 157,100.7324 142,100.7324 L132,100.7324 " fill="none" style="stroke:#4D4D4D;stroke-width:1.0;"/><rect fill="#155384" height="40.4883" rx="12.5" ry="12.5" style="stroke:#155384;stroke-width:1.5;" width="94" x="38" y="140.9766"/><text fill="#FFFFFF" font-family="sans-serif" font-size="14" lengthAdjust="spacingAndGlyphs" textLength="70" x="50" y="166.5117">機器人模組</text><path d="M182,100.7324 L172,100.7324 C157,100.7324 157,161.2207 142,161.2207 L132,161.2207 " fill="none" style="stroke:#4D4D4D;stroke-width:1.0;"/><path d="M312,251.9531 L302,251.9531 C287,251.9531 287,100.7324 272,100.7324 L262,100.7324 " fill="none" style="stroke:#4D4D4D;stroke-width:1.0;"/><rect fill="#12AAB5" height="40.4883" rx="12.5" ry="12.5" style="stroke:#12AAB5;stroke-width:1.5;" width="80" x="182" y="231.709"/><text fill="#FFFFFF" font-family="sans-serif" font-size="14" lengthAdjust="spacingAndGlyphs" textLength="56" x="194" y="257.2441">網路單元</text><rect fill="#12AAB5" height="40.4883" rx="12.5" ry="12.5" style="stroke:#12AAB5;stroke-width:1.5;" width="108" x="24" y="201.4648"/><text fill="#FFFFFF" font-family="sans-serif" font-size="14" lengthAdjust="spacingAndGlyphs" textLength="84" x="36" y="227">後端溝通模組</text><path d="M182,251.9531 L172,251.9531 C157,251.9531 157,221.709 142,221.709 L132,221.709 " fill="none" style="stroke:#4D4D4D;stroke-width:1.0;"/><rect fill="#12AAB5" height="40.4883" rx="12.5" ry="12.5" style="stroke:#12AAB5;stroke-width:1.5;" width="122" x="10" y="261.9531"/><text fill="#FFFFFF" font-family="sans-serif" font-size="14" lengthAdjust="spacingAndGlyphs" textLength="98" x="22" y="287.4883">資料庫存取模組</text><path d="M182,251.9531 L172,251.9531 C157,251.9531 157,282.1973 142,282.1973 L132,282.1973 " fill="none" style="stroke:#4D4D4D;stroke-width:1.0;"/><path d="M312,251.9531 L302,251.9531 C287,251.9531 287,251.9531 272,251.9531 L262,251.9531 " fill="none" style="stroke:#4D4D4D;stroke-width:1.0;"/><rect fill="#55AA59" height="40.4883" rx="12.5" ry="12.5" style="stroke:#55AA59;stroke-width:1.5;" width="80" x="182" y="382.9297"/><text fill="#FFFFFF" font-family="sans-serif" font-size="14" lengthAdjust="spacingAndGlyphs" textLength="56" x="194" y="408.4648">邏輯單元</text><rect fill="#55AA59" height="40.4883" rx="12.5" ry="12.5" style="stroke:#55AA59;stroke-width:1.5;" width="108" x="24" y="322.4414"/><text fill="#FFFFFF" font-family="sans-serif" font-size="14" lengthAdjust="spacingAndGlyphs" textLength="84" x="36" y="347.9766">遊戲規則模組</text><path d="M182,403.1738 L172,403.1738 C157,403.1738 157,342.6855 142,342.6855 L132,342.6855 " fill="none" style="stroke:#4D4D4D;stroke-width:1.0;"/><rect fill="#55AA59" height="40.4883" rx="12.5" ry="12.5" style="stroke:#55AA59;stroke-width:1.5;" width="108" x="24" y="382.9297"/><text fill="#FFFFFF" font-family="sans-serif" font-size="14" lengthAdjust="spacingAndGlyphs" textLength="84" x="36" y="408.4648">演出風格模組</text><path d="M182,403.1738 L172,403.1738 C157,403.1738 157,403.1738 142,403.1738 L132,403.1738 " fill="none" style="stroke:#4D4D4D;stroke-width:1.0;"/><rect fill="#55AA59" height="40.4883" rx="12.5" ry="12.5" style="stroke:#55AA59;stroke-width:1.5;" width="108" x="24" y="443.418"/><text fill="#FFFFFF" font-family="sans-serif" font-size="14" lengthAdjust="spacingAndGlyphs" textLength="84" x="36" y="468.9531">牌局分析模組</text><path d="M182,403.1738 L172,403.1738 C157,403.1738 157,463.6621 142,463.6621 L132,463.6621 " fill="none" style="stroke:#4D4D4D;stroke-width:1.0;"/><path d="M312,251.9531 L302,251.9531 C287,251.9531 287,403.1738 272,403.1738 L262,403.1738 " fill="none" style="stroke:#4D4D4D;stroke-width:1.0;"/><!--MD5=[d1c14bcd7b480ebb053ea01911e1151e]
@startmindmap

<style>
mindmapDiagram {
    node {
        Padding 12
        Margin 10
        LineColor #4D4D4D
        BackgroundColor #4D4D4D
        FontColor white
        Shadowing 0
        HorizontalAlignment center
    }
    arrow {
        LineStyle 0
        LineColor #4D4D4D
    }
}
</style>

+ PVE 系統框架

<style>
  node {
    BackGroundColor #E85642
    LineColor #E85642
  }
</style>
++ 應用技術
+++ Golang
+++ Redis
+++ AWS EC2

<style>
  node {
    BackGroundColor #FFC300
    LineColor #FFC300
  }
</style>
++ 常駐服務
+++ 系統復原
+++ 心跳檢測
+++ 斷線重連

<style>
  node {
    BackGroundColor #155384
    LineColor #155384
  }
</style>
- - 核心單元
- - - 牌局管理模組
- - - 封包處理模組
- - - 機器人模組

<style>
  node {
    BackGroundColor #12AAB5
    LineColor #12AAB5
  }
</style>
- - 網路單元
- - - 後端溝通模組
- - - 資料庫存取模組

<style>
  node {
    BackGroundColor #55AA59
    LineColor #55AA59
  }
</style>
- - 邏輯單元
- - - 遊戲規則模組
- - - 演出風格模組
- - - 牌局分析模組

@endmindmap

PlantUML version 1.2020.22(Sun Dec 06 17:36:27 CST 2020)
(GPL source distribution)
Java Runtime: OpenJDK Runtime Environment
JVM: OpenJDK 64-Bit Server VM
Default Encoding: UTF-8
Language: zh
Country: TW
--></g></svg>