<?xml version="1.0" encoding="UTF-8" standalone="no"?><svg xmlns="http://www.w3.org/2000/svg" xmlns:xlink="http://www.w3.org/1999/xlink" contentScriptType="application/ecmascript" contentStyleType="text/css" height="929px" preserveAspectRatio="none" style="width:877px;height:929px;" version="1.1" viewBox="0 0 877 929" width="877px" zoomAndPan="magnify"><defs/><g><rect fill="#4D4D4D" height="56.9766" rx="12.5" ry="12.5" style="stroke:#4D4D4D;stroke-width:1.5;" width="118" x="398" y="435.1738"/><text fill="#FFFFFF" font-family="sans-serif" font-size="14" lengthAdjust="spacingAndGlyphs" textLength="84" x="415" y="460.709">遊戲前端框架</text><text fill="#FFFFFF" font-family="sans-serif" font-size="14" lengthAdjust="spacingAndGlyphs" textLength="94" x="410" y="477.1973">CocosCreator</text><rect fill="#E85642" height="40.4883" rx="12.5" ry="12.5" style="stroke:#E85642;stroke-width:1.5;" width="80" x="566" y="171.2207"/><text fill="#FFFFFF" font-family="sans-serif" font-size="14" lengthAdjust="spacingAndGlyphs" textLength="56" x="578" y="196.7559">應用語言</text><rect fill="#E85642" height="40.4883" rx="12.5" ry="12.5" style="stroke:#E85642;stroke-width:1.5;" width="89" x="696" y="80.4883"/><text fill="#FFFFFF" font-family="sans-serif" font-size="14" lengthAdjust="spacingAndGlyphs" textLength="65" x="708" y="106.0234">Javascript</text><path d="M646,191.4648 L656,191.4648 C671,191.4648 671,100.7324 686,100.7324 L696,100.7324 " fill="none" style="stroke:#4D4D4D;stroke-width:1.0;"/><rect fill="#E85642" height="40.4883" rx="12.5" ry="12.5" style="stroke:#E85642;stroke-width:1.5;" width="95" x="696" y="140.9766"/><text fill="#FFFFFF" font-family="sans-serif" font-size="14" lengthAdjust="spacingAndGlyphs" textLength="71" x="708" y="166.5117">Typescript</text><path d="M646,191.4648 L656,191.4648 C671,191.4648 671,161.2207 686,161.2207 L696,161.2207 " fill="none" style="stroke:#4D4D4D;stroke-width:1.0;"/><rect fill="#E85642" height="40.4883" rx="12.5" ry="12.5" style="stroke:#E85642;stroke-width:1.5;" width="51" x="696" y="201.4648"/><text fill="#FFFFFF" font-family="sans-serif" font-size="14" lengthAdjust="spacingAndGlyphs" textLength="27" x="708" y="227">Java</text><path d="M646,191.4648 L656,191.4648 C671,191.4648 671,221.709 686,221.709 L696,221.709 " fill="none" style="stroke:#4D4D4D;stroke-width:1.0;"/><rect fill="#E85642" height="40.4883" rx="12.5" ry="12.5" style="stroke:#E85642;stroke-width:1.5;" width="56" x="696" y="261.9531"/><text fill="#FFFFFF" font-family="sans-serif" font-size="14" lengthAdjust="spacingAndGlyphs" textLength="32" x="708" y="287.4883">C++</text><path d="M646,191.4648 L656,191.4648 C671,191.4648 671,282.1973 686,282.1973 L696,282.1973 " fill="none" style="stroke:#4D4D4D;stroke-width:1.0;"/><path d="M516,463.6621 L526,463.6621 C541,463.6621 541,191.4648 556,191.4648 L566,191.4648 " fill="none" style="stroke:#4D4D4D;stroke-width:1.0;"/><rect fill="#F08705" height="40.4883" rx="12.5" ry="12.5" style="stroke:#F08705;stroke-width:1.5;" width="80" x="566" y="352.6855"/><text fill="#FFFFFF" font-family="sans-serif" font-size="14" lengthAdjust="spacingAndGlyphs" textLength="56" x="578" y="378.2207">通訊方式</text><rect fill="#F08705" height="40.4883" rx="12.5" ry="12.5" style="stroke:#F08705;stroke-width:1.5;" width="60" x="696" y="322.4414"/><text fill="#FFFFFF" font-family="sans-serif" font-size="14" lengthAdjust="spacingAndGlyphs" textLength="36" x="708" y="347.9766">HTTP</text><path d="M646,372.9297 L656,372.9297 C671,372.9297 671,342.6855 686,342.6855 L696,342.6855 " fill="none" style="stroke:#4D4D4D;stroke-width:1.0;"/><rect fill="#F08705" height="40.4883" rx="12.5" ry="12.5" style="stroke:#F08705;stroke-width:1.5;" width="154" x="696" y="382.9297"/><text fill="#FFFFFF" font-family="sans-serif" font-size="14" lengthAdjust="spacingAndGlyphs" textLength="130" x="708" y="408.4648">WebSocket / MQTT</text><path d="M646,372.9297 L656,372.9297 C671,372.9297 671,403.1738 686,403.1738 L696,403.1738 " fill="none" style="stroke:#4D4D4D;stroke-width:1.0;"/><path d="M516,463.6621 L526,463.6621 C541,463.6621 541,372.9297 556,372.9297 L566,372.9297 " fill="none" style="stroke:#4D4D4D;stroke-width:1.0;"/><rect fill="#FFC300" height="40.4883" rx="12.5" ry="12.5" style="stroke:#FFC300;stroke-width:1.5;" width="80" x="566" y="473.6621"/><text fill="#FFFFFF" font-family="sans-serif" font-size="14" lengthAdjust="spacingAndGlyphs" textLength="56" x="578" y="499.1973">音訊模組</text><rect fill="#FFC300" height="40.4883" rx="12.5" ry="12.5" style="stroke:#FFC300;stroke-width:1.5;" width="112" x="696" y="443.418"/><text fill="#FFFFFF" font-family="sans-serif" font-size="14" lengthAdjust="spacingAndGlyphs" textLength="88" x="708" y="468.9531">AudioSource</text><path d="M646,493.9063 L656,493.9063 C671,493.9063 671,463.6621 686,463.6621 L696,463.6621 " fill="none" style="stroke:#4D4D4D;stroke-width:1.0;"/><rect fill="#FFC300" height="40.4883" rx="12.5" ry="12.5" style="stroke:#FFC300;stroke-width:1.5;" width="100" x="696" y="503.9063"/><text fill="#FFFFFF" font-family="sans-serif" font-size="14" lengthAdjust="spacingAndGlyphs" textLength="76" x="708" y="529.4414">GameVoice</text><path d="M646,493.9063 L656,493.9063 C671,493.9063 671,524.1504 686,524.1504 L696,524.1504 " fill="none" style="stroke:#4D4D4D;stroke-width:1.0;"/><path d="M516,463.6621 L526,463.6621 C541,463.6621 541,493.9063 556,493.9063 L566,493.9063 " fill="none" style="stroke:#4D4D4D;stroke-width:1.0;"/><rect fill="#8EBA69" height="40.4883" rx="12.5" ry="12.5" style="stroke:#8EBA69;stroke-width:1.5;" width="80" x="566" y="624.8828"/><text fill="#FFFFFF" font-family="sans-serif" font-size="14" lengthAdjust="spacingAndGlyphs" textLength="56" x="578" y="650.418">動畫模組</text><rect fill="#8EBA69" height="40.4883" rx="12.5" ry="12.5" style="stroke:#8EBA69;stroke-width:1.5;" width="99" x="696" y="564.3945"/><text fill="#FFFFFF" font-family="sans-serif" font-size="14" lengthAdjust="spacingAndGlyphs" textLength="75" x="708" y="589.9297">BaseAction</text><path d="M646,645.127 L656,645.127 C671,645.127 671,584.6387 686,584.6387 L696,584.6387 " fill="none" style="stroke:#4D4D4D;stroke-width:1.0;"/><rect fill="#8EBA69" height="40.4883" rx="12.5" ry="12.5" style="stroke:#8EBA69;stroke-width:1.5;" width="130" x="696" y="624.8828"/><text fill="#FFFFFF" font-family="sans-serif" font-size="14" lengthAdjust="spacingAndGlyphs" textLength="106" x="708" y="650.418">ScheduleAction</text><path d="M646,645.127 L656,645.127 C671,645.127 671,645.127 686,645.127 L696,645.127 " fill="none" style="stroke:#4D4D4D;stroke-width:1.0;"/><rect fill="#8EBA69" height="40.4883" rx="12.5" ry="12.5" style="stroke:#8EBA69;stroke-width:1.5;" width="169" x="696" y="685.3711"/><text fill="#FFFFFF" font-family="sans-serif" font-size="14" lengthAdjust="spacingAndGlyphs" textLength="145" x="708" y="710.9063">Spine / DragonBones</text><path d="M646,645.127 L656,645.127 C671,645.127 671,705.6152 686,705.6152 L696,705.6152 " fill="none" style="stroke:#4D4D4D;stroke-width:1.0;"/><path d="M516,463.6621 L526,463.6621 C541,463.6621 541,645.127 556,645.127 L566,645.127 " fill="none" style="stroke:#4D4D4D;stroke-width:1.0;"/><rect fill="#55AA59" height="40.4883" rx="12.5" ry="12.5" style="stroke:#55AA59;stroke-width:1.5;" width="80" x="566" y="776.1035"/><text fill="#FFFFFF" font-family="sans-serif" font-size="14" lengthAdjust="spacingAndGlyphs" textLength="56" x="578" y="801.6387">操作模組</text><rect fill="#55AA59" height="40.4883" rx="12.5" ry="12.5" style="stroke:#55AA59;stroke-width:1.5;" width="80" x="696" y="745.8594"/><text fill="#FFFFFF" font-family="sans-serif" font-size="14" lengthAdjust="spacingAndGlyphs" textLength="56" x="708" y="771.3945">智能拖曳</text><path d="M646,796.3477 L656,796.3477 C671,796.3477 671,766.1035 686,766.1035 L696,766.1035 " fill="none" style="stroke:#4D4D4D;stroke-width:1.0;"/><rect fill="#55AA59" height="40.4883" rx="12.5" ry="12.5" style="stroke:#55AA59;stroke-width:1.5;" width="80" x="696" y="806.3477"/><text fill="#FFFFFF" font-family="sans-serif" font-size="14" lengthAdjust="spacingAndGlyphs" textLength="56" x="708" y="831.8828">碰撞回饋</text><path d="M646,796.3477 L656,796.3477 C671,796.3477 671,826.5918 686,826.5918 L696,826.5918 " fill="none" style="stroke:#4D4D4D;stroke-width:1.0;"/><path d="M516,463.6621 L526,463.6621 C541,463.6621 541,796.3477 556,796.3477 L566,796.3477 " fill="none" style="stroke:#4D4D4D;stroke-width:1.0;"/><rect fill="#384289" height="40.4883" rx="12.5" ry="12.5" style="stroke:#384289;stroke-width:1.5;" width="70" x="278" y="80.4883"/><text fill="#FFFFFF" font-family="sans-serif" font-size="14" lengthAdjust="spacingAndGlyphs" textLength="46" x="290" y="106.0234">UI 模組</text><rect fill="#384289" height="40.4883" rx="12.5" ry="12.5" style="stroke:#384289;stroke-width:1.5;" width="94" x="134" y="20"/><text fill="#FFFFFF" font-family="sans-serif" font-size="14" lengthAdjust="spacingAndGlyphs" textLength="70" x="146" y="45.5352">通用物件庫</text><path d="M278,100.7324 L268,100.7324 C253,100.7324 253,40.2441 238,40.2441 L228,40.2441 " fill="none" style="stroke:#4D4D4D;stroke-width:1.0;"/><rect fill="#384289" height="40.4883" rx="12.5" ry="12.5" style="stroke:#384289;stroke-width:1.5;" width="131" x="97" y="80.4883"/><text fill="#FFFFFF" font-family="sans-serif" font-size="14" lengthAdjust="spacingAndGlyphs" textLength="107" x="109" y="106.0234">Widget 定位功能</text><path d="M278,100.7324 L268,100.7324 C253,100.7324 253,100.7324 238,100.7324 L228,100.7324 " fill="none" style="stroke:#4D4D4D;stroke-width:1.0;"/><rect fill="#384289" height="40.4883" rx="12.5" ry="12.5" style="stroke:#384289;stroke-width:1.5;" width="129" x="99" y="140.9766"/><text fill="#FFFFFF" font-family="sans-serif" font-size="14" lengthAdjust="spacingAndGlyphs" textLength="105" x="111" y="166.5117">Layout 定位功能</text><path d="M278,100.7324 L268,100.7324 C253,100.7324 253,161.2207 238,161.2207 L228,161.2207 " fill="none" style="stroke:#4D4D4D;stroke-width:1.0;"/><path d="M398,463.6621 L388,463.6621 C373,463.6621 373,100.7324 358,100.7324 L348,100.7324 " fill="none" style="stroke:#4D4D4D;stroke-width:1.0;"/><rect fill="#155384" height="40.4883" rx="12.5" ry="12.5" style="stroke:#155384;stroke-width:1.5;" width="80" x="268" y="231.709"/><text fill="#FFFFFF" font-family="sans-serif" font-size="14" lengthAdjust="spacingAndGlyphs" textLength="56" x="280" y="257.2441">發布平台</text><rect fill="#155384" height="40.4883" rx="12.5" ry="12.5" style="stroke:#155384;stroke-width:1.5;" width="98" x="120" y="201.4648"/><text fill="#FFFFFF" font-family="sans-serif" font-size="14" lengthAdjust="spacingAndGlyphs" textLength="74" x="132" y="227">Web Html5</text><path d="M268,251.9531 L258,251.9531 C243,251.9531 243,221.709 228,221.709 L218,221.709 " fill="none" style="stroke:#4D4D4D;stroke-width:1.0;"/><rect fill="#155384" height="40.4883" rx="12.5" ry="12.5" style="stroke:#155384;stroke-width:1.5;" width="150" x="68" y="261.9531"/><text fill="#FFFFFF" font-family="sans-serif" font-size="14" lengthAdjust="spacingAndGlyphs" textLength="126" x="80" y="287.4883">iOS / Android App</text><path d="M268,251.9531 L258,251.9531 C243,251.9531 243,282.1973 228,282.1973 L218,282.1973 " fill="none" style="stroke:#4D4D4D;stroke-width:1.0;"/><path d="M398,463.6621 L388,463.6621 C373,463.6621 373,251.9531 358,251.9531 L348,251.9531 " fill="none" style="stroke:#4D4D4D;stroke-width:1.0;"/><rect fill="#1699D3" height="40.4883" rx="12.5" ry="12.5" style="stroke:#1699D3;stroke-width:1.5;" width="80" x="268" y="382.9297"/><text fill="#FFFFFF" font-family="sans-serif" font-size="14" lengthAdjust="spacingAndGlyphs" textLength="56" x="280" y="408.4648">發布工具</text><rect fill="#1699D3" height="40.4883" rx="12.5" ry="12.5" style="stroke:#1699D3;stroke-width:1.5;" width="144" x="74" y="322.4414"/><text fill="#FFFFFF" font-family="sans-serif" font-size="14" lengthAdjust="spacingAndGlyphs" textLength="120" x="86" y="347.9766">Gulp 腳本檔案優化</text><path d="M268,403.1738 L258,403.1738 C243,403.1738 243,342.6855 228,342.6855 L218,342.6855 " fill="none" style="stroke:#4D4D4D;stroke-width:1.0;"/><rect fill="#1699D3" height="40.4883" rx="12.5" ry="12.5" style="stroke:#1699D3;stroke-width:1.5;" width="150" x="68" y="382.9297"/><text fill="#FFFFFF" font-family="sans-serif" font-size="14" lengthAdjust="spacingAndGlyphs" textLength="126" x="80" y="408.4648">圖集整合與資源壓縮</text><path d="M268,403.1738 L258,403.1738 C243,403.1738 243,403.1738 228,403.1738 L218,403.1738 " fill="none" style="stroke:#4D4D4D;stroke-width:1.0;"/><rect fill="#1699D3" height="40.4883" rx="12.5" ry="12.5" style="stroke:#1699D3;stroke-width:1.5;" width="135" x="83" y="443.418"/><text fill="#FFFFFF" font-family="sans-serif" font-size="14" lengthAdjust="spacingAndGlyphs" textLength="111" x="95" y="468.9531">AWS S3 自動部署</text><path d="M268,403.1738 L258,403.1738 C243,403.1738 243,463.6621 228,463.6621 L218,463.6621 " fill="none" style="stroke:#4D4D4D;stroke-width:1.0;"/><path d="M398,463.6621 L388,463.6621 C373,463.6621 373,403.1738 358,403.1738 L348,403.1738 " fill="none" style="stroke:#4D4D4D;stroke-width:1.0;"/><rect fill="#12AAB5" height="40.4883" rx="12.5" ry="12.5" style="stroke:#12AAB5;stroke-width:1.5;" width="80" x="268" y="685.3711"/><text fill="#FFFFFF" font-family="sans-serif" font-size="14" lengthAdjust="spacingAndGlyphs" textLength="56" x="280" y="710.9063">周邊服務</text><rect fill="#12AAB5" height="40.4883" rx="12.5" ry="12.5" style="stroke:#12AAB5;stroke-width:1.5;" width="115" x="103" y="503.9063"/><text fill="#FFFFFF" font-family="sans-serif" font-size="14" lengthAdjust="spacingAndGlyphs" textLength="91" x="115" y="529.4414">i18n 多國語系</text><path d="M268,705.6152 L258,705.6152 C243,705.6152 243,524.1504 228,524.1504 L218,524.1504 " fill="none" style="stroke:#4D4D4D;stroke-width:1.0;"/><rect fill="#12AAB5" height="40.4883" rx="12.5" ry="12.5" style="stroke:#12AAB5;stroke-width:1.5;" width="143" x="75" y="564.3945"/><text fill="#FFFFFF" font-family="sans-serif" font-size="14" lengthAdjust="spacingAndGlyphs" textLength="119" x="87" y="589.9297">Webview 內嵌網頁</text><path d="M268,705.6152 L258,705.6152 C243,705.6152 243,584.6387 228,584.6387 L218,584.6387 " fill="none" style="stroke:#4D4D4D;stroke-width:1.0;"/><rect fill="#12AAB5" height="40.4883" rx="12.5" ry="12.5" style="stroke:#12AAB5;stroke-width:1.5;" width="122" x="96" y="624.8828"/><text fill="#FFFFFF" font-family="sans-serif" font-size="14" lengthAdjust="spacingAndGlyphs" textLength="98" x="108" y="650.418">多分辨率自適應</text><path d="M268,705.6152 L258,705.6152 C243,705.6152 243,645.127 228,645.127 L218,645.127 " fill="none" style="stroke:#4D4D4D;stroke-width:1.0;"/><rect fill="#12AAB5" height="40.4883" rx="12.5" ry="12.5" style="stroke:#12AAB5;stroke-width:1.5;" width="150" x="68" y="685.3711"/><text fill="#FFFFFF" font-family="sans-serif" font-size="14" lengthAdjust="spacingAndGlyphs" textLength="126" x="80" y="710.9063">弱網路資源動態加載</text><path d="M268,705.6152 L258,705.6152 C243,705.6152 243,705.6152 228,705.6152 L218,705.6152 " fill="none" style="stroke:#4D4D4D;stroke-width:1.0;"/><rect fill="#12AAB5" height="40.4883" rx="12.5" ry="12.5" style="stroke:#12AAB5;stroke-width:1.5;" width="114" x="104" y="745.8594"/><text fill="#FFFFFF" font-family="sans-serif" font-size="14" lengthAdjust="spacingAndGlyphs" textLength="90" x="116" y="771.3945">gzip 封包壓縮</text><path d="M268,705.6152 L258,705.6152 C243,705.6152 243,766.1035 228,766.1035 L218,766.1035 " fill="none" style="stroke:#4D4D4D;stroke-width:1.0;"/><rect fill="#12AAB5" height="40.4883" rx="12.5" ry="12.5" style="stroke:#12AAB5;stroke-width:1.5;" width="118" x="100" y="806.3477"/><text fill="#FFFFFF" font-family="sans-serif" font-size="14" lengthAdjust="spacingAndGlyphs" textLength="94" x="112" y="831.8828">slack 警示推播</text><path d="M268,705.6152 L258,705.6152 C243,705.6152 243,826.5918 228,826.5918 L218,826.5918 " fill="none" style="stroke:#4D4D4D;stroke-width:1.0;"/><rect fill="#12AAB5" height="40.4883" rx="12.5" ry="12.5" style="stroke:#12AAB5;stroke-width:1.5;" width="208" x="10" y="866.8359"/><text fill="#FFFFFF" font-family="sans-serif" font-size="14" lengthAdjust="spacingAndGlyphs" textLength="184" x="22" y="892.3711">sentry / fundebug 日誌管理</text><path d="M268,705.6152 L258,705.6152 C243,705.6152 243,887.0801 228,887.0801 L218,887.0801 " fill="none" style="stroke:#4D4D4D;stroke-width:1.0;"/><path d="M398,463.6621 L388,463.6621 C373,463.6621 373,705.6152 358,705.6152 L348,705.6152 " fill="none" style="stroke:#4D4D4D;stroke-width:1.0;"/><!--MD5=[2378ad4dcfac140916ed5d0102600b57]
@startmindmap

<style>
mindmapDiagram {
    node {
        Padding 12
        Margin 10
        LineColor #4D4D4D
        BackgroundColor #4D4D4D
        FontColor white
        Shadowing 0
        HorizontalAlignment center
    }
    arrow {
        LineStyle 0
        LineColor #4D4D4D
    }
}
</style>

+ 遊戲前端框架\nCocosCreator

<style>
  node {
    BackGroundColor #E85642
    LineColor #E85642
  }
</style>
++ 應用語言
+++ Javascript
+++ Typescript
+++ Java
+++ C++

<style>
  node {
    BackGroundColor #F08705
    LineColor #F08705
  }
</style>
++ 通訊方式
+++ HTTP
+++ WebSocket / MQTT

<style>
  node {
    BackGroundColor #FFC300
    LineColor #FFC300
  }
</style>
++ 音訊模組
+++ AudioSource
+++ GameVoice

<style>
  node {
    BackGroundColor #8EBA69
    LineColor #8EBA69
  }
</style>
++ 動畫模組
+++ BaseAction
+++ ScheduleAction
+++ Spine / DragonBones

<style>
  node {
    BackGroundColor #55AA59
    LineColor #55AA59
  }
</style>
++ 操作模組
+++ 智能拖曳
+++ 碰撞回饋

<style>
  node {
    BackGroundColor #384289
    LineColor #384289
  }
</style>
- - UI 模組
- - - 通用物件庫
- - - Widget 定位功能
- - - Layout 定位功能

<style>
  node {
    BackGroundColor #155384
    LineColor #155384
  }
</style>
- - 發布平台
- - - Web Html5
- - - iOS / Android App

<style>
  node {
    BackGroundColor #1699D3
    LineColor #1699D3
  }
</style>
- - 發布工具
- - - Gulp 腳本檔案優化
- - - 圖集整合與資源壓縮
- - - AWS S3 自動部署

<style>
  node {
    BackGroundColor #12AAB5
    LineColor #12AAB5
  }
</style>
- - 周邊服務
- - - i18n 多國語系
- - - Webview 內嵌網頁
- - - 多分辨率自適應
- - - 弱網路資源動態加載
- - - gzip 封包壓縮
- - - slack 警示推播
- - - sentry / fundebug 日誌管理

@endmindmap

PlantUML version 1.2020.22(Sun Dec 06 17:36:27 CST 2020)
(GPL source distribution)
Java Runtime: OpenJDK Runtime Environment
JVM: OpenJDK 64-Bit Server VM
Default Encoding: UTF-8
Language: zh
Country: TW
--></g></svg>